HIERARCHY
ROOT newVegas:Hips
{
	OFFSET 0.000000 96.479958 0.000000
	CHANNELS 6 Xposition Yposition Zposition Xrotation Yrotation Zrotation
	JOINT newVegas:Pelvis
	{
		OFFSET 0.000000 0.000000 0.000000
		CHANNELS 3 Xrotation Yrotation Zrotation
		JOINT newVegas:LeftUpLeg
		{
			OFFSET 18.735201 -5.666702 -4.541200
			CHANNELS 3 Xrotation Yrotation Zrotation
			JOINT newVegas:LeftLeg
			{
				OFFSET -0.021200 -31.938179 0.493100
				CHANNELS 3 Xrotation Yrotation Zrotation
				JOINT newVegas:LeftFoot
				{
					OFFSET 0.021200 -31.938179 -4.336299
					CHANNELS 3 Xrotation Yrotation Zrotation
					JOINT newVegas:LeftToeBase
					{
						OFFSET 0.943001 -26.722000 15.023500
						CHANNELS 3 Xrotation Yrotation Zrotation
						End Site
						{
							OFFSET 0.000000 30.670183 0.000000
						}
					}
				}
				JOINT newVegas:Left_PantLeg
				{
					OFFSET 0.663870 -9.044666 -1.108900
					CHANNELS 3 Xrotation Yrotation Zrotation
					End Site
					{
						OFFSET 1.415995 20.635357 0.000000
					}
				}
			}
		}
		JOINT newVegas:RightUpLeg
		{
			OFFSET -18.735201 -5.666702 -4.541200
			CHANNELS 3 Xrotation Yrotation Zrotation
			JOINT newVegas:RightLeg
			{
				OFFSET 0.018946 -31.938133 0.493100
				CHANNELS 3 Xrotation Yrotation Zrotation
				JOINT newVegas:RightFoot
				{
					OFFSET -0.018946 -31.938126 -4.336299
					CHANNELS 3 Xrotation Yrotation Zrotation
					JOINT newVegas:RightToeBase
					{
						OFFSET -0.943001 -26.722004 15.023500
						CHANNELS 3 Xrotation Yrotation Zrotation
						End Site
						{
							OFFSET 0.000000 30.670187 0.000000
						}
					}
				}
				JOINT newVegas:Right_PantLeg
				{
					OFFSET -0.661674 -9.044716 -1.108900
					CHANNELS 3 Xrotation Yrotation Zrotation
					End Site
					{
						OFFSET -1.415958 20.635269 0.000000
					}
				}
			}
		}
	}
	JOINT newVegas:Spine
	{
		OFFSET 0.000000 10.199997 -0.299500
		CHANNELS 3 Xrotation Yrotation Zrotation
		JOINT newVegas:Spine1
		{
			OFFSET 0.000000 11.900002 -1.516600
			CHANNELS 3 Xrotation Yrotation Zrotation
			JOINT newVegas:Spine2
			{
				OFFSET 0.000000 13.600006 -2.842500
				CHANNELS 3 Xrotation Yrotation Zrotation
				JOINT newVegas:Neck
				{
					OFFSET 0.000000 9.624100 -2.890100
					CHANNELS 3 Xrotation Yrotation Zrotation
					JOINT newVegas:Head
					{
						OFFSET 0.000000 14.068802 -1.351900
						CHANNELS 3 Xrotation Yrotation Zrotation
						JOINT newVegas:Hair_Back
						{
							OFFSET 0.000000 3.231903 -17.524799
							CHANNELS 3 Xrotation Yrotation Zrotation
							End Site
							{
								OFFSET 0.000000 19.849884 0.000000
							}
						}
						JOINT newVegas:Hair_Front
						{
							OFFSET 0.000000 31.260406 4.573800
							CHANNELS 3 Xrotation Yrotation Zrotation
							JOINT newVegas:Hair_Front1
							{
								OFFSET 0.000000 2.284103 11.993300
								CHANNELS 3 Xrotation Yrotation Zrotation
								JOINT newVegas:Hair_Front2
								{
									OFFSET 0.000000 2.284103 11.993300
									CHANNELS 3 Xrotation Yrotation Zrotation
									End Site
									{
										OFFSET 0.000000 12.208862 0.000000
									}
								}
							}
						}
						JOINT newVegas:Jowel
						{
							OFFSET 0.000000 -7.458206 6.864100
							CHANNELS 3 Xrotation Yrotation Zrotation
							End Site
							{
								OFFSET 0.000000 19.849884 0.000000
							}
						}
					}
				}
				JOINT newVegas:LeftShoulder
				{
					OFFSET 15.263000 10.923401 -0.547700
					CHANNELS 3 Xrotation Yrotation Zrotation
					JOINT newVegas:LeftArm
					{
						OFFSET 25.438599 -2.830597 -13.032500
						CHANNELS 3 Xrotation Yrotation Zrotation
						JOINT newVegas:LeftForeArm
						{
							OFFSET 29.960503 0.000000 0.000000
							CHANNELS 3 Xrotation Yrotation Zrotation
							JOINT newVegas:LeftHand
							{
								OFFSET 27.849251 0.000000 0.000000
								CHANNELS 3 Xrotation Yrotation Zrotation
								JOINT newVegas:LeftHandThumb1
								{
									OFFSET 4.487587 -3.305161 6.305391
									CHANNELS 3 Xrotation Yrotation Zrotation
									JOINT newVegas:LeftHandThumb2
									{
										OFFSET 5.480453 -3.164139 3.164143
										CHANNELS 3 Xrotation Yrotation Zrotation
										JOINT newVegas:LeftHandThumb3
										{
											OFFSET 5.159721 -2.978973 2.978967
											CHANNELS 3 Xrotation Yrotation Zrotation
											End Site
											{
												OFFSET 2.494507 5.926697 1.738678
											}
										}
									}
								}
								JOINT newVegas:LeftHandIndex1
								{
									OFFSET 18.578728 -0.527832 5.208049
									CHANNELS 3 Xrotation Yrotation Zrotation
									JOINT newVegas:LeftHandIndex2
									{
										OFFSET 3.192009 0.000000 0.000000
										CHANNELS 3 Xrotation Yrotation Zrotation
										JOINT newVegas:LeftHandIndex3
										{
											OFFSET 3.835129 0.000000 0.000000
											CHANNELS 3 Xrotation Yrotation Zrotation
											End Site
											{
												OFFSET -0.034599 3.816971 0.371180
											}
										}
									}
								}
								JOINT newVegas:LeftHandMiddle1
								{
									OFFSET 18.476105 0.000000 0.000000
									CHANNELS 3 Xrotation Yrotation Zrotation
									JOINT newVegas:LeftHandMiddle2
									{
										OFFSET 3.324875 0.000000 0.000000
										CHANNELS 3 Xrotation Yrotation Zrotation
										JOINT newVegas:LeftHandMiddle3
										{
											OFFSET 4.596550 0.000000 0.000000
											CHANNELS 3 Xrotation Yrotation Zrotation
											End Site
											{
												OFFSET 0.057701 4.578827 0.399218
											}
										}
									}
								}
								JOINT newVegas:LeftHandRing1
								{
									OFFSET 17.732719 0.121887 -4.201567
									CHANNELS 3 Xrotation Yrotation Zrotation
									JOINT newVegas:LeftHandRing2
									{
										OFFSET 2.733170 0.000000 0.000000
										CHANNELS 3 Xrotation Yrotation Zrotation
										JOINT newVegas:LeftHandRing3
										{
											OFFSET 3.178268 0.000000 0.000000
											CHANNELS 3 Xrotation Yrotation Zrotation
											End Site
											{
												OFFSET 0.119102 3.170624 0.185394
											}
										}
									}
								}
								JOINT newVegas:LeftHandPinky1
								{
									OFFSET 15.989624 -0.606689 -7.535461
									CHANNELS 3 Xrotation Yrotation Zrotation
									JOINT newVegas:LeftHandPinky2
									{
										OFFSET 2.538986 0.000000 0.000000
										CHANNELS 3 Xrotation Yrotation Zrotation
										JOINT newVegas:LeftHandPinky3
										{
											OFFSET 2.593102 0.000000 0.000000
											CHANNELS 3 Xrotation Yrotation Zrotation
											End Site
											{
												OFFSET -0.150902 2.584198 0.152708
											}
										}
									}
								}
							}
							JOINT newVegas:Left_Sleeve
							{
								OFFSET 0.267448 -0.649796 0.577675
								CHANNELS 3 Xrotation Yrotation Zrotation
								End Site
								{
									OFFSET 0.000000 15.991241 0.000000
								}
							}
							JOINT newVegas:Left_CapeC
							{
								OFFSET 15.715958 -8.608795 -6.935905
								CHANNELS 3 Xrotation Yrotation Zrotation
								JOINT newVegas:Left_CapeC1
								{
									OFFSET 0.000000 -8.688499 0.000000
									CHANNELS 3 Xrotation Yrotation Zrotation
									End Site
									{
										OFFSET 0.000000 8.688499 0.000000
									}
								}
							}
						}
						JOINT newVegas:Left_CapeB
						{
							OFFSET 26.118385 -8.608795 -7.079235
							CHANNELS 3 Xrotation Yrotation Zrotation
							JOINT newVegas:Left_CapeB1
							{
								OFFSET 0.000000 -8.688499 0.000000
								CHANNELS 3 Xrotation Yrotation Zrotation
								End Site
								{
									OFFSET 0.000000 8.688499 0.000000
								}
							}
						}
						JOINT newVegas:Left_CapeA
						{
							OFFSET 5.115639 -8.608795 -10.395809
							CHANNELS 3 Xrotation Yrotation Zrotation
							JOINT newVegas:Left_CapeA1
							{
								OFFSET 0.000000 -8.688499 0.000000
								CHANNELS 3 Xrotation Yrotation Zrotation
								End Site
								{
									OFFSET 0.000000 8.688499 0.000000
								}
							}
						}
					}
				}
				JOINT newVegas:RightShoulder
				{
					OFFSET -15.263000 10.923401 -0.547700
					CHANNELS 3 Xrotation Yrotation Zrotation
					JOINT newVegas:RightArm
					{
						OFFSET -25.438599 -2.830597 -13.032500
						CHANNELS 3 Xrotation Yrotation Zrotation
						JOINT newVegas:RightForeArm
						{
							OFFSET -29.960503 0.000000 0.000000
							CHANNELS 3 Xrotation Yrotation Zrotation
							JOINT newVegas:RightHand
							{
								OFFSET -27.849251 0.000000 0.000000
								CHANNELS 3 Xrotation Yrotation Zrotation
								JOINT newVegas:RightHandThumb1
								{
									OFFSET -4.487587 -3.305161 6.305391
									CHANNELS 3 Xrotation Yrotation Zrotation
									JOINT newVegas:RightHandThumb2
									{
										OFFSET -5.480453 -3.164139 3.164143
										CHANNELS 3 Xrotation Yrotation Zrotation
										JOINT newVegas:RightHandThumb3
										{
											OFFSET -5.159721 -2.978973 2.978967
											CHANNELS 3 Xrotation Yrotation Zrotation
											End Site
											{
												OFFSET -2.494507 5.926697 1.738678
											}
										}
									}
								}
								JOINT newVegas:RightHandIndex1
								{
									OFFSET -18.578728 -0.527832 5.208049
									CHANNELS 3 Xrotation Yrotation Zrotation
									JOINT newVegas:RightHandIndex2
									{
										OFFSET -3.192009 0.000000 0.000000
										CHANNELS 3 Xrotation Yrotation Zrotation
										JOINT newVegas:RightHandIndex3
										{
											OFFSET -3.835129 0.000000 0.000000
											CHANNELS 3 Xrotation Yrotation Zrotation
											End Site
											{
												OFFSET 0.034599 3.816971 0.371180
											}
										}
									}
								}
								JOINT newVegas:RightHandMiddle1
								{
									OFFSET -18.476105 0.000000 0.000000
									CHANNELS 3 Xrotation Yrotation Zrotation
									JOINT newVegas:RightHandMiddle2
									{
										OFFSET -3.324875 0.000000 0.000000
										CHANNELS 3 Xrotation Yrotation Zrotation
										JOINT newVegas:RightHandMiddle3
										{
											OFFSET -4.596550 0.000000 0.000000
											CHANNELS 3 Xrotation Yrotation Zrotation
											End Site
											{
												OFFSET -0.057701 4.578827 0.399218
											}
										}
									}
								}
								JOINT newVegas:RightHandRing1
								{
									OFFSET -17.732719 0.121887 -4.201567
									CHANNELS 3 Xrotation Yrotation Zrotation
									JOINT newVegas:RightHandRing2
									{
										OFFSET -2.733170 0.000000 0.000000
										CHANNELS 3 Xrotation Yrotation Zrotation
										JOINT newVegas:RightHandRing3
										{
											OFFSET -3.178268 0.000000 0.000000
											CHANNELS 3 Xrotation Yrotation Zrotation
											End Site
											{
												OFFSET -0.119102 3.170624 0.185394
											}
										}
									}
								}
								JOINT newVegas:RightHandPinky1
								{
									OFFSET -15.989624 -0.606689 -7.535461
									CHANNELS 3 Xrotation Yrotation Zrotation
									JOINT newVegas:RightHandPinky2
									{
										OFFSET -2.538986 0.000000 0.000000
										CHANNELS 3 Xrotation Yrotation Zrotation
										JOINT newVegas:RightHandPinky3
										{
											OFFSET -2.593102 0.000000 0.000000
											CHANNELS 3 Xrotation Yrotation Zrotation
											End Site
											{
												OFFSET 0.150902 2.584198 0.152708
											}
										}
									}
								}
							}
							JOINT newVegas:Right_CapeC
							{
								OFFSET -15.715958 -8.608795 -6.935905
								CHANNELS 3 Xrotation Yrotation Zrotation
								JOINT newVegas:Right_CapeC1
								{
									OFFSET 0.000000 -8.688499 0.000000
									CHANNELS 3 Xrotation Yrotation Zrotation
									End Site
									{
										OFFSET 0.000000 8.688499 0.000000
									}
								}
							}
							JOINT newVegas:Right_Sleeve
							{
								OFFSET -0.267448 -0.649994 0.577675
								CHANNELS 3 Xrotation Yrotation Zrotation
								End Site
								{
									OFFSET 0.000000 15.991302 0.000000
								}
							}
						}
						JOINT newVegas:Right_CapeA
						{
							OFFSET -5.115540 -8.608795 -10.395824
							CHANNELS 3 Xrotation Yrotation Zrotation
							JOINT newVegas:Right_CapeA1
							{
								OFFSET 0.000000 -8.688499 0.000000
								CHANNELS 3 Xrotation Yrotation Zrotation
								End Site
								{
									OFFSET 0.000000 8.688499 0.000000
								}
							}
						}
						JOINT newVegas:Right_CapeB
						{
							OFFSET -26.118187 -8.608795 -7.079266
							CHANNELS 3 Xrotation Yrotation Zrotation
							JOINT newVegas:Right_CapeB1
							{
								OFFSET 0.000000 -8.688499 0.000000
								CHANNELS 3 Xrotation Yrotation Zrotation
								End Site
								{
									OFFSET 0.000000 8.688499 0.000000
								}
							}
						}
					}
				}
				JOINT newVegas:Left_Collar
				{
					OFFSET 18.625099 8.655502 8.828100
					CHANNELS 3 Xrotation Yrotation Zrotation
					JOINT newVegas:Left_Collar1
					{
						OFFSET 14.783401 10.540405 -1.259500
						CHANNELS 3 Xrotation Yrotation Zrotation
						End Site
						{
							OFFSET 0.000000 18.199875 0.000000
						}
					}
				}
				JOINT newVegas:Collar_Back
				{
					OFFSET 0.000000 15.630707 -20.132601
					CHANNELS 3 Xrotation Yrotation Zrotation
					End Site
					{
						OFFSET 0.000000 22.523010 0.000000
					}
				}
				JOINT newVegas:Left_Peck
				{
					OFFSET 17.239599 -5.132599 25.482599
					CHANNELS 3 Xrotation Yrotation Zrotation
					End Site
					{
						OFFSET 0.000000 22.523010 0.000000
					}
				}
				JOINT newVegas:Right_Peck
				{
					OFFSET -17.239599 -5.132202 25.482599
					CHANNELS 3 Xrotation Yrotation Zrotation
					End Site
					{
						OFFSET 0.000000 22.523010 0.000000
					}
				}
				JOINT newVegas:Right_Collar
				{
					OFFSET -18.625099 8.655792 8.828100
					CHANNELS 3 Xrotation Yrotation Zrotation
					JOINT newVegas:Right_Collar1
					{
						OFFSET -14.783401 10.539993 -1.259500
						CHANNELS 3 Xrotation Yrotation Zrotation
						End Site
						{
							OFFSET 0.000000 18.199631 0.000000
						}
					}
				}
			}
		}
		JOINT newVegas:Belly
		{
			OFFSET 0.000000 -6.540398 9.014299
			CHANNELS 3 Xrotation Yrotation Zrotation
			End Site
			{
				OFFSET 0.000000 11.566666 0.000000
			}
		}
	}
	JOINT newVegas:ElvisFacialAnim_Joint
	{
		OFFSET 1.000000 -95.330101 -8.825800
		CHANNELS 3 Xrotation Yrotation Zrotation
		End Site
		{
			OFFSET 0.000000 35.315800 0.000000
		}
	}
}
MOTION
Frames: 4
Frame Time: 0.033333
4.661487 175.135345 329.162811 -248.007693 -2.794609 2.618975 0.000002 0.000000 -0.000000 -103.343638 6.961680 21.037051 91.081105 -12.472407 -6.313215 14.954798 -10.535928 -4.632583 0.000001 0.000001 0.000001 0.000001 -0.000000 -0.000000 -120.852452 7.633646 -22.642502 109.509891 8.233942 1.889982 34.755827 16.999349 0.441803 -0.000002 0.000001 0.000000 0.000000 0.000002 -0.000001 36.483196 -0.250078 -1.596940 32.318119 3.272120 -3.073552 21.567150 4.002894 -3.361294 -3.886258 0.507899 -0.285865 -3.886262 0.507895 -0.285862 -0.000000 0.000000 0.000000 -3.886262 0.507897 -0.285865 -3.886268 0.507895 -0.285863 0.000000 0.000000 0.000000 -0.000000 0.000000 0.000000 9.326296 -8.206329 -2.875673 -37.981968 -16.344021 -38.670147 0.000011 -52.259703 0.000013 -26.172347 -3.870465 13.674231 -2.822715 6.181906 -6.615170 14.210665 9.350919 33.313742 0.000001 -0.000001 -0.000003 0.092255 2.729186 -2.631579 0.044439 0.720942 -7.053294 0.000002 0.000001 0.000000 0.082425 2.964605 -9.679739 0.098119 1.068809 -10.489438 -0.000001 -0.000001 -0.000000 0.125705 3.273283 -12.238042 0.084559 0.992814 -9.735883 0.000001 0.000003 -0.000001 -1.309351 5.358509 -6.869791 0.402380 2.135535 -21.338698 0.000000 -0.000002 -0.000000 0.000003 0.000000 -0.000001 0.000003 0.000000 -0.000001 0.000002 0.000000 -0.000001 -0.000000 0.000000 0.000001 -0.000000 -0.000001 0.000001 -0.000000 0.000000 0.000001 -0.000001 0.000001 0.000000 12.792593 -1.050992 -5.905438 -48.560432 -26.486514 58.130661 -0.000001 52.382415 0.000003 -18.003718 -0.278679 -2.484741 -37.587207 -5.977194 -2.838977 15.978150 -2.090228 -9.307286 0.000003 -0.000001 0.000001 0.098536 -2.487117 8.484940 0.089419 -0.909155 11.233203 -0.000001 0.000001 0.000000 1.363513 -7.063204 17.872184 0.542839 -2.183958 27.913643 0.000000 -0.000001 -0.000000 2.152217 -7.655131 25.930835 0.488922 -2.079049 26.463711 -0.000001 -0.000001 -0.000000 -8.345532 -19.141016 23.687753 0.558287 -2.212854 28.316451 -0.000001 0.000001 0.000002 -0.000004 0.000004 -0.000001 -0.000000 0.000001 0.000000 -0.000003 0.000005 -0.000000 0.000002 0.000001 0.000001 0.000001 0.000002 0.000002 0.000002 0.000001 0.000001 0.000001 0.000002 0.000004 -0.000000 0.000000 -0.000000 -0.000000 0.000000 -0.000000 -0.000000 0.000000 -0.000000 -0.000000 0.000000 -0.000000 -0.000000 0.000000 -0.000000 -0.000000 0.000000 -0.000000 -0.000000 0.000000 -0.000000 -0.000000 0.000000 -0.000000 0.000002 0.000000 -0.000000 
4.703746 166.855896 339.259949 -262.074577 -2.252995 1.797816 0.000000 -0.000000 -0.000000 -97.986898 6.719524 18.859455 79.827071 -9.651040 -8.427233 15.875656 -10.572133 -5.743133 0.000000 0.000000 0.000000 -0.000002 -0.000001 0.000002 -119.956809 2.802785 -23.901047 104.487940 7.677155 2.361240 36.646164 15.535900 -4.956121 -0.000002 -0.000000 -0.000001 -0.000001 0.000002 -0.000001 35.148809 0.204493 -1.631257 31.339538 2.952823 -3.135112 22.977185 3.008895 -3.822500 -4.216429 0.479687 0.319674 -4.216427 0.479685 0.319674 -0.000000 -0.000000 0.000000 -4.216429 0.479687 0.319676 -4.216425 0.479677 0.319676 -0.000001 0.000000 -0.000000 -0.000000 -0.000000 -0.000000 9.239448 -8.916563 -2.846265 -36.509919 -14.284410 -36.792658 0.000005 -51.451883 -0.000001 -29.226236 -4.966276 12.532166 -2.861702 7.853264 -9.540366 14.101904 9.595137 37.367367 -0.000000 -0.000004 -0.000003 0.095216 2.885150 -4.777501 0.041697 0.698623 -6.833824 0.000001 -0.000001 -0.000002 0.110286 3.190870 -11.901093 0.080774 0.970531 -9.515247 0.000000 0.000000 -0.000000 0.169333 3.516690 -14.649752 0.075600 0.939178 -9.205112 0.000000 0.000001 -0.000000 -0.880773 4.640686 -8.972113 0.346119 1.985600 -19.774117 0.000001 -0.000003 -0.000000 0.000000 0.000000 -0.000000 0.000000 0.000000 -0.000000 -0.000000 0.000001 -0.000001 0.000000 0.000000 0.000001 0.000001 -0.000001 -0.000001 0.000000 0.000000 0.000001 0.000000 0.000001 -0.000000 14.139586 -0.997555 -3.590972 -51.916346 -23.562174 58.260633 0.000025 46.768266 -0.000006 -16.681117 2.160752 -0.249637 -37.023809 -5.599055 -3.530227 15.861960 -0.720062 -7.912632 0.000002 -0.000001 0.000001 0.152409 -2.634695 5.209631 0.076907 -0.843758 10.415750 0.000001 0.000001 0.000001 1.080597 -7.006271 13.799960 0.510013 -2.120904 27.039857 0.000001 0.000000 -0.000000 1.873606 -7.646549 22.144377 0.445385 -1.989306 25.238051 -0.000001 0.000002 -0.000001 -9.025456 -18.947353 21.107006 0.517502 -2.135514 27.241649 -0.000001 0.000005 -0.000001 -0.000000 -0.000001 -0.000001 0.000001 -0.000000 0.000004 -0.000000 -0.000001 -0.000001 0.000001 0.000003 -0.000005 0.000000 0.000003 -0.000006 0.000001 0.000003 -0.000005 0.000000 0.000003 -0.000004 -0.000000 0.000000 -0.000000 -0.000000 0.000000 -0.000000 -0.000000 0.000000 -0.000000 -0.000000 0.000000 -0.000000 -0.000000 0.000000 -0.000000 -0.000000 0.000000 -0.000000 -0.000000 0.000000 -0.000000 0.000001 0.000000 -0.000000 0.000000 -0.000000 -0.000000 
4.425954 157.675278 350.720581 -275.307850 -1.324591 0.874080 0.000000 0.000000 0.000000 -89.575752 5.063865 15.581316 65.214544 -5.505681 -9.771330 11.537583 -9.170829 -7.290662 0.000002 0.000000 0.000001 0.000003 0.000000 0.000000 -118.454769 0.342449 -26.342706 100.384479 6.467195 3.454631 31.067139 14.989591 -6.788006 -0.000000 -0.000000 0.000000 0.000001 0.000002 -0.000000 33.196509 1.601900 -1.427455 30.089070 2.719230 -2.504233 25.247149 1.690749 -3.643877 -4.309191 0.395886 0.684576 -4.309192 0.395889 0.684573 -0.000000 0.000000 -0.000000 -4.309189 0.395888 0.684573 -4.309182 0.395889 0.684573 -0.000002 0.000000 -0.000000 -0.000000 0.000000 -0.000000 9.165968 -9.500691 -3.028724 -35.571195 -12.567874 -34.980653 0.000014 -50.163440 0.000003 -32.849125 -5.308081 11.437305 -3.105105 9.001873 -11.155877 14.089859 9.342154 39.030085 -0.000000 -0.000003 -0.000006 0.132556 3.011085 -6.755525 0.045193 0.727052 -7.113597 0.000002 -0.000002 -0.000001 0.153437 3.454189 -14.580125 0.088578 1.015818 -9.964066 0.000001 0.000000 -0.000000 0.239374 3.822593 -17.711632 0.091134 1.030480 -10.109201 -0.000001 0.000001 0.000000 -0.948247 4.662362 -10.987105 0.365871 2.039703 -20.336917 -0.000000 0.000000 0.000000 -0.000002 0.000000 0.000001 -0.000002 0.000000 0.000001 -0.000003 0.000001 0.000001 0.000001 0.000003 0.000003 0.000002 0.000002 0.000002 0.000001 0.000003 0.000003 -0.000000 0.000002 0.000002 15.536073 -1.651944 -2.411395 -51.855903 -22.279884 56.384400 -0.000003 49.922966 -0.000004 -15.611420 3.988998 -2.496614 -34.348328 -4.678385 -4.572524 15.688965 -0.549686 -6.911555 0.000001 -0.000002 0.000004 0.212896 -3.041385 1.853980 0.074766 -0.832033 10.269221 0.000000 -0.000000 -0.000002 0.773345 -6.736598 10.016036 0.498668 -2.098523 26.731494 -0.000001 -0.000000 0.000000 1.521749 -7.422113 18.426402 0.425934 -1.947449 24.670432 0.000001 0.000001 -0.000000 -9.485372 -18.421584 17.762742 0.533856 -2.166961 27.677339 0.000000 0.000001 0.000001 0.000000 -0.000001 0.000000 0.000000 -0.000001 0.000002 -0.000000 -0.000001 0.000000 0.000001 0.000001 -0.000003 -0.000000 0.000001 -0.000002 0.000001 0.000001 -0.000003 -0.000000 0.000001 -0.000001 0.000000 -0.000000 0.000001 0.000000 -0.000000 0.000001 0.000000 -0.000000 0.000001 0.000000 -0.000000 0.000001 0.000000 -0.000000 0.000001 0.000000 -0.000000 0.000001 0.000000 -0.000000 0.000001 0.000001 0.000000 -0.000000 0.000000 0.000000 0.000000 
4.125478 145.606476 362.562225 -288.401432 -0.505604 -0.291707 -0.000004 0.000000 -0.000000 -80.846545 1.765343 11.932639 45.488329 1.611284 -8.474286 18.399978 -5.111423 -8.939718 0.000000 -0.000000 -0.000000 0.000004 0.000000 -0.000000 -118.411834 -2.229986 -27.762692 95.318814 5.759803 4.824403 27.792275 14.278562 -9.178697 -0.000000 -0.000000 0.000000 0.000003 0.000000 -0.000002 30.660781 3.763800 -0.819560 28.455126 2.485220 -0.879621 27.886204 0.146306 -2.476564 -4.317167 0.348223 0.441031 -4.317153 0.348224 0.441033 0.000002 -0.000000 0.000000 -4.317168 0.348218 0.441032 -4.317145 0.348223 0.441031 0.000000 0.000000 -0.000000 0.000002 -0.000000 0.000000 9.095508 -9.883905 -3.574199 -35.725089 -11.781156 -32.987071 -0.000015 -47.843180 -0.000009 -37.405698 -4.353210 10.611274 -3.717363 9.575407 -11.605155 14.210444 8.792212 38.373441 0.000002 0.000001 -0.000006 0.208401 3.147208 -9.042561 0.058347 0.825605 -8.083845 -0.000000 -0.000000 -0.000000 0.233582 3.816632 -18.285429 0.128712 1.222671 -12.020923 -0.000001 0.000001 -0.000000 0.368971 4.255803 -22.126020 0.143401 1.289574 -12.689688 0.000000 -0.000001 0.000001 -1.462354 5.510442 -13.309703 0.474723 2.312067 -23.203322 -0.000001 0.000000 -0.000000 -0.000002 -0.000001 0.000002 -0.000002 -0.000001 0.000002 -0.000002 -0.000001 0.000002 0.000004 0.000002 0.000001 0.000004 0.000001 0.000001 0.000004 0.000002 0.000001 0.000002 0.000001 0.000001 16.650029 -3.082052 -2.742075 -48.719948 -22.307249 51.884477 -0.000003 61.656842 -0.000002 -14.508353 4.723452 -9.750982 -29.326995 -3.218941 -5.897542 15.536713 -1.658706 -6.083100 0.000001 0.000000 -0.000004 0.206417 -3.438202 -1.279961 0.076835 -0.843335 10.410378 -0.000002 0.000000 0.000003 0.467726 -6.131009 6.535922 0.482399 -2.065948 26.284105 -0.000001 -0.000001 -0.000001 1.091237 -6.831740 14.638960 0.405752 -1.902972 24.070335 0.000000 -0.000001 0.000000 -9.562402 -17.229924 13.684538 0.572694 -2.239350 28.687211 0.000000 -0.000004 -0.000000 -0.000002 -0.000001 -0.000004 -0.000001 0.000002 -0.000001 -0.000002 -0.000001 -0.000003 0.000001 0.000003 -0.000002 0.000000 0.000003 -0.000001 0.000001 0.000003 -0.000002 0.000000 0.000003 0.000001 0.000000 -0.000000 0.000001 0.000000 -0.000000 0.000001 0.000000 -0.000000 0.000001 0.000000 -0.000000 0.000001 0.000000 -0.000000 0.000001 0.000000 -0.000000 0.000001 0.000000 -0.000000 0.000001 -0.000001 -0.000000 0.000000 -0.000004 0.000000 -0.000000 
